<?xml version="1.0" encoding="UTF-8" standalone="no"?>
<svg
   width="107.42208"
   height="94.999817"
   version="1.0"
   id="svg972"
   sodipodi:docname="Data_Dancersr.svg"
   inkscape:version="1.1.2 (0a00cf5339, 2022-02-04)"
   xmlns:inkscape="http://www.inkscape.org/namespaces/inkscape"
   xmlns:sodipodi="http://sodipodi.sourceforge.net/DTD/sodipodi-0.dtd"
   xmlns="http://www.w3.org/2000/svg"
   xmlns:svg="http://www.w3.org/2000/svg">
  <sodipodi:namedview
     id="namedview974"
     pagecolor="#ffffff"
     bordercolor="#666666"
     borderopacity="1.0"
     inkscape:pageshadow="2"
     inkscape:pageopacity="0.0"
     inkscape:pagecheckerboard="0"
     showgrid="false"
     fit-margin-top="0"
     fit-margin-left="0"
     fit-margin-right="0"
     fit-margin-bottom="0"
     inkscape:zoom="6.0042948"
     inkscape:cx="66.119338"
     inkscape:cy="48.798403"
     inkscape:window-width="1920"
     inkscape:window-height="1011"
     inkscape:window-x="0"
     inkscape:window-y="32"
     inkscape:window-maximized="1"
     inkscape:current-layer="g970" />
  <defs
     id="defs916" />
  <g
     id="g970"
     transform="translate(-36.686787,-2.0001826)">
    <g
       transform="matrix(0.74473461,0,0,1,67.691507,52)"
       style="fill:none;stroke:#000000;stroke-width:2;stroke-linecap:butt;stroke-linejoin:miter"
       id="g928">
      <path
         d="m 70,25 c 20,0 25,0 25,0"
         id="path918" />
      <path
         d="M 31,15 H 0 v -55"
         id="path920" />
      <path
         d="M 32,35 H -20 V -20"
         id="path922" />
      <g
         style="fill:#000000;stroke:none;stroke-width:0"
         id="g926">
        <path
           d="M 30,5 V 6.428 43.571 45 h 1.428 19.048 c 11.268,0 19.994,-9 20.00019,-20 0,-10.999955 -8.732091,-19.9999998 -20,-20 0,0 0,0 -19.047619,0 z m 2.857143,2.8571429 c 7.977121,0 13.061225,0 15.238095,0 1.190476,0 1.785714,0 2.083333,0 0.14881,0 0.230656,0 0.267858,0 0.0186,0 0.02511,0 0.02976,0 C 60.236853,7.857143 67.142857,15.497098 67.142857,25 67.142857,34.502902 59.760662,42.142857 50,42.142857 H 32.857143 Z"
           id="path924" />
      </g>
    </g>
    <path
       d="m 119.9208,22 c 14.89469,0 18.61836,0 18.61836,0"
       id="path930"
       style="fill:none;stroke:#000000;stroke-width:1.72596;stroke-linecap:butt;stroke-linejoin:miter" />
    <path
       d="M 90.876149,12 H 41.723664"
       id="path932"
       style="fill:none;stroke:#000000;stroke-width:1.72596;stroke-linecap:butt;stroke-linejoin:miter" />
    <path
       d="M 90.876149,32 H 41.723664"
       id="path934"
       style="fill:none;stroke:#000000;stroke-width:1.72596;stroke-linecap:butt;stroke-linejoin:miter" />
    <g
       transform="matrix(0.74473461,0,0,1,87.524721,-42.499817)"
       style="fill:#000000;stroke:none;stroke-width:0;stroke-linecap:butt;stroke-linejoin:miter"
       id="g940">
      <path
         d="m -2.25,81.5 c -1.597,2.644 -2.25,3 -2.25,3 h -3.656 l 2,-2.438 C -6.15625,82.062505 -0.5,75.062451 -0.5,64.5 -0.5,53.937 -6.156,46.937 -6.156,46.937 l -2,-2.437 H -4.5 c 0.78125,0.9375 1.421875,1.65625 2.21875,3 1.872719,3.099815 4.78125,9.026646 4.78125,17 0,7.95065 -2.896697,13.879425 -4.75,17.000005 z"
         id="path936" />
      <path
         d="m -2.406,44.5 2,2.437 c 0,0 5.656,7 5.656,17.563 0,10.562 -5.656,17.562 -5.656,17.562 l -2,2.438 h 3.156 14 c 2.408,0 7.689,0.024 13.625,-2.40625 5.935301,-2.430764 12.536536,-7.343266 17.6875,-16.875 L 44.75,64.5 46.0625,63.78125 C 35.759387,44.71559 19.506574,44.5 14.75,44.5 h -14 -3.15625 z m 5.87475,3 H 14.75 c 4.684173,0 18.28685,-0.130207 27.96875,17 C 37.951964,72.929075 32.197469,77.18391 27,79.3125 21.639339,81.507924 17.158075,81.500001 14.75,81.5 H 3.5 c 1.8735884,-3.108434 4.75,-9.04935 4.75,-17 0,-7.973354 -2.9085314,-13.900185 -4.78125,-17 z"
         id="path938" />
    </g>
    <path
       d="m 70.15106,12 a 2.5,2.5 0 1 1 -5,0 2.5,2.5 0 1 1 5,0 z"
       id="path954"
       style="fill:#000000;stroke:none;stroke-linejoin:miter;stroke-miterlimit:4" />
    <path
       d="m 55.292656,32 a 2.5,2.5 0 1 1 -5,0 2.5,2.5 0 1 1 5,0 z"
       id="path956"
       style="fill:#000000;stroke:none;stroke-linejoin:miter;stroke-miterlimit:4" />
    <path
       d="m 42.686787,12 a 2.5,2.5 0 1 1 -5,0 2.5,2.5 0 1 1 5,0 z"
       id="path960"
       style="fill:none;stroke:#000000;stroke-width:2;stroke-linejoin:miter;stroke-miterlimit:4" />
    <path
       d="m 42.686787,32 a 2.5,2.5 0 1 1 -5,0 2.5,2.5 0 1 1 5,0 z"
       id="path962"
       style="fill:none;stroke:#000000;stroke-width:2;stroke-linejoin:miter;stroke-miterlimit:4" />
    <path
       d="m 143.10887,22 a 2.5,2.5 0 1 1 -5,0 2.5,2.5 0 1 1 5,0 z"
       id="path964"
       style="fill:none;stroke:#000000;stroke-width:2;stroke-linejoin:miter;stroke-miterlimit:4" />
    <path
       d="m 143.10887,77 a 2.5,2.5 0 1 1 -5,0 2.5,2.5 0 1 1 5,0 z"
       id="path966"
       style="fill:none;stroke:#000000;stroke-width:2;stroke-linejoin:miter;stroke-miterlimit:4" />
  </g>
</svg>
